<svg xmlns="http://www.w3.org/2000/svg" width="20.589" height="13.102" viewBox="0 0 20.589 13.102">
  <path id="Icon_material-group" data-name="Icon material-group" d="M15.538,13.115a2.808,2.808,0,1,0-2.808-2.808A2.8,2.8,0,0,0,15.538,13.115Zm-7.487,0a2.808,2.808,0,1,0-2.808-2.808A2.8,2.8,0,0,0,8.051,13.115Zm0,1.872c-2.181,0-6.551,1.095-6.551,3.276V20.6H14.6v-2.34C14.6,16.082,10.232,14.987,8.051,14.987Zm7.487,0c-.271,0-.58.019-.908.047a3.949,3.949,0,0,1,1.844,3.229V20.6h5.615v-2.34C22.089,16.082,17.719,14.987,15.538,14.987Z" transform="translate(-1.5 -7.5)"/>
</svg>
