<svg xmlns="http://www.w3.org/2000/svg" width="18.25" height="14.192" viewBox="0 0 18.25 14.192">
  <path id="Icon_awesome-home" data-name="Icon awesome-home" d="M8.882,5.935,3.041,10.746v5.192a.507.507,0,0,0,.507.507l3.55-.009a.507.507,0,0,0,.5-.507V12.9a.507.507,0,0,1,.507-.507h2.028a.507.507,0,0,1,.507.507v3.03a.507.507,0,0,0,.507.508l3.549.01a.507.507,0,0,0,.507-.507v-5.2L9.367,5.935A.386.386,0,0,0,8.882,5.935Zm9.227,3.27L15.46,7.022V2.634a.38.38,0,0,0-.38-.38H13.306a.38.38,0,0,0-.38.38v2.3L10.089,2.6a1.521,1.521,0,0,0-1.933,0l-8.02,6.6a.38.38,0,0,0-.051.535l.808.982a.38.38,0,0,0,.536.052L8.882,4.636a.386.386,0,0,1,.485,0l7.452,6.138a.38.38,0,0,0,.535-.051l.808-.982a.38.38,0,0,0-.054-.536Z" transform="translate(0.001 -2.254)"/>
</svg>
