<svg xmlns="http://www.w3.org/2000/svg" width="17.259" height="17.263" viewBox="0 0 17.259 17.263">
  <path id="Icon_ionic-ios-settings" data-name="Icon ionic-ios-settings" d="M20.334,13.129a2.221,2.221,0,0,1,1.425-2.072,8.8,8.8,0,0,0-1.065-2.566,2.251,2.251,0,0,1-.9.193,2.216,2.216,0,0,1-2.027-3.119A8.777,8.777,0,0,0,15.2,4.5a2.219,2.219,0,0,1-4.144,0A8.8,8.8,0,0,0,8.491,5.565,2.216,2.216,0,0,1,6.464,8.684a2.177,2.177,0,0,1-.9-.193A9,9,0,0,0,4.5,11.062a2.22,2.22,0,0,1,0,4.144A8.8,8.8,0,0,0,5.57,17.772,2.217,2.217,0,0,1,8.5,20.7a8.855,8.855,0,0,0,2.566,1.065,2.215,2.215,0,0,1,4.135,0A8.8,8.8,0,0,0,17.763,20.7a2.219,2.219,0,0,1,2.926-2.926,8.854,8.854,0,0,0,1.065-2.566A2.231,2.231,0,0,1,20.334,13.129ZM13.17,16.721a3.6,3.6,0,1,1,3.6-3.6A3.595,3.595,0,0,1,13.17,16.721Z" transform="translate(-4.5 -4.5)"/>
</svg>
